<svg width="153" height="186" viewBox="0 0 153 186" fill="none" xmlns="http://www.w3.org/2000/svg">
<path d="M2.6582 15.7305C25.2813 3.73656 85.6791 -12.5951 150.005 15.5675L153 16.879V99.4473L152.993 99.5772C151.894 120.784 135.162 166.261 78.2988 184.756L76.4971 185.342L74.7588 184.586C62.5475 179.276 44.3041 168.8 28.9248 154.446C13.6261 140.168 0.445227 121.365 0.000976562 99.419L0 99.3682V17.1397L2.6582 15.7305ZM143 23.4493C85.5971 -0.439905 32.0734 12.6893 10 23.2325V99.2501C10.377 117.229 21.2769 133.629 35.748 147.136C49.4333 159.909 65.6751 169.479 77.0127 174.642C127.721 157.316 142.036 116.808 143 99.1671V23.4493Z" fill="white"/>
<path d="M22.1474 119.035V50.435H41.8667C44.2732 50.435 46.4122 51.1684 48.2839 52.635C50.2001 54.035 51.693 56.0017 52.7625 58.535C53.832 61.0684 54.3668 64.035 54.3668 67.435C54.3668 71.3684 53.676 74.7017 52.2946 77.4351C50.9577 80.1017 49.3088 81.9684 47.348 83.035V83.4351C49.6208 84.5017 51.537 86.535 53.0967 89.535C54.6564 92.5351 55.4363 96.235 55.4363 100.635C55.4363 104.502 54.8124 107.802 53.5646 110.535C52.3169 113.268 50.668 115.368 48.6181 116.835C46.5682 118.302 44.3177 119.035 41.8667 119.035H22.1474ZM30.7036 107.635H40.463C42.2455 107.635 43.7161 106.902 44.8748 105.435C46.078 103.968 46.6796 101.835 46.6796 99.035C46.6796 96.3684 46.1225 94.135 45.0084 92.335C43.9389 90.4684 42.2901 89.535 40.0619 89.535H30.7036V107.635ZM30.7036 78.235H39.5271C41.5771 78.235 43.0922 77.4017 44.0726 75.735C45.0976 74.0017 45.6101 72.0017 45.6101 69.735C45.6101 67.135 45.0753 65.1684 44.0058 63.835C42.9808 62.5017 41.6216 61.835 39.9282 61.835H30.7036V78.235Z" fill="white"/>
<path d="M77.8827 120.235C72.134 120.235 67.6554 117.335 64.4468 111.535C61.2382 105.735 59.634 96.8017 59.634 84.735C59.634 72.6017 61.2382 63.6684 64.4468 57.935C67.6554 52.135 72.134 49.235 77.8827 49.235C81.0913 49.235 83.9656 50.1684 86.5057 52.035C89.0458 53.9017 91.0512 56.8017 92.5218 60.735C93.9924 64.6684 94.7277 69.735 94.7277 75.935H85.971C85.971 70.6017 85.2134 66.6684 83.6982 64.135C82.2276 61.535 80.2891 60.235 77.8827 60.235C74.7187 60.235 72.3568 62.2017 70.7971 66.135C69.2374 70.0017 68.4575 75.3684 68.4575 82.235V87.235C68.4575 94.1017 69.2597 99.5017 70.864 103.435C72.4682 107.302 74.8969 109.235 78.1501 109.235C80.6456 109.235 82.6287 107.968 84.0993 105.435C85.6145 102.835 86.372 98.9017 86.372 93.635H94.7277C94.7277 99.635 93.9924 104.602 92.5218 108.535C91.0512 112.468 89.0458 115.402 86.5057 117.335C84.0102 119.268 81.1358 120.235 77.8827 120.235Z" fill="white"/>
<path d="M116.372 120.235C111.47 120.235 107.615 118.335 104.808 114.535C102.045 110.668 100.663 105.002 100.663 97.535V50.435H109.22V97.135C109.22 101.068 109.843 104.068 111.091 106.135C112.339 108.202 114.099 109.235 116.372 109.235C118.645 109.235 120.405 108.202 121.653 106.135C122.945 104.068 123.591 101.068 123.591 97.135V50.435H132.147V97.535C132.147 105.002 130.744 110.668 127.936 114.535C125.129 118.335 121.274 120.235 116.372 120.235Z" fill="white"/>
</svg>
