<svg width="423" height="186" viewBox="0 0 423 186" fill="none" xmlns="http://www.w3.org/2000/svg">
<path d="M2.6582 15.7305C25.2813 3.73656 85.6791 -12.5951 150.005 15.5675L153 16.879V99.4473L152.993 99.5772C151.894 120.784 135.162 166.261 78.2988 184.756L76.4971 185.342L74.7588 184.586C62.5475 179.276 44.3041 168.8 28.9248 154.446C13.6261 140.168 0.445227 121.365 0.000976562 99.419L0 99.3682V17.1397L2.6582 15.7305ZM143 23.4493C85.5971 -0.439905 32.0734 12.6893 10 23.2325V99.2501C10.377 117.229 21.2769 133.629 35.748 147.136C49.4333 159.909 65.6751 169.479 77.0127 174.642C127.721 157.316 142.036 116.808 143 99.1671V23.4493Z" fill="white"/>
<path d="M187.49 105.841C181.47 105.841 176.78 103.811 173.42 99.751C170.06 95.691 168.38 89.4377 168.38 80.991C168.38 72.4977 170.06 66.2444 173.42 62.231C176.78 58.171 181.47 56.141 187.49 56.141C190.85 56.141 193.86 56.7944 196.52 58.101C199.18 59.4077 201.28 61.4377 202.82 64.191C204.36 66.9444 205.13 70.491 205.13 74.831H195.96C195.96 71.0977 195.167 68.3444 193.58 66.571C192.04 64.751 190.01 63.841 187.49 63.841C184.177 63.841 181.703 65.2177 180.07 67.971C178.437 70.6777 177.62 74.4344 177.62 79.241V82.741C177.62 87.5477 178.46 91.3277 180.14 94.081C181.82 96.7877 184.363 98.141 187.77 98.141C190.383 98.141 192.46 97.2544 194 95.481C195.587 93.661 196.38 90.9077 196.38 87.221H205.13C205.13 91.421 204.36 94.8977 202.82 97.651C201.28 100.404 199.18 102.458 196.52 103.811C193.907 105.164 190.897 105.841 187.49 105.841Z" fill="white"/>
<path d="M215.616 117.741C213.936 117.741 212.606 117.648 211.626 117.461C210.646 117.274 210.156 117.158 210.156 117.111V110.671H213.936C215.149 110.671 216.269 110.228 217.296 109.341C218.369 108.454 219.139 107.008 219.606 105.001L207.356 68.181H216.246L221.776 85.471C222.009 86.171 222.242 87.0577 222.476 88.131C222.709 89.2044 222.919 90.2777 223.106 91.351C223.292 92.3777 223.432 93.2644 223.526 94.011C223.666 94.711 223.736 95.061 223.736 95.061H224.016C224.016 95.061 224.062 94.7344 224.156 94.081C224.249 93.381 224.389 92.5177 224.576 91.491C224.762 90.4644 224.949 89.4144 225.136 88.341C225.369 87.2677 225.579 86.3344 225.766 85.541L230.316 68.181H238.716L228.636 103.111C227.889 105.771 226.932 108.198 225.766 110.391C224.646 112.631 223.269 114.404 221.636 115.711C220.002 117.064 217.996 117.741 215.616 117.741Z" fill="white"/>
<path d="M259.02 105.841C257.293 105.841 255.706 105.398 254.26 104.511C252.813 103.578 251.623 102.224 250.69 100.451H250.34L249.5 105.001H242.5V54.391H250.9V71.961H251.25C251.903 70.4677 252.953 69.3244 254.4 68.531C255.893 67.7377 257.573 67.341 259.44 67.341C261.633 67.341 263.57 68.0177 265.25 69.371C266.976 70.6777 268.33 72.7544 269.31 75.601C270.336 78.401 270.85 82.041 270.85 86.521C270.85 93.1944 269.776 98.0944 267.63 101.221C265.53 104.301 262.66 105.841 259.02 105.841ZM256.5 98.211C258.553 98.211 260 97.3244 260.84 95.551C261.68 93.7777 262.1 91.2344 262.1 87.921V85.261C262.1 81.9477 261.68 79.4044 260.84 77.631C260 75.8577 258.553 74.971 256.5 74.971C254.493 74.971 253.046 75.881 252.16 77.701C251.32 79.521 250.9 82.0877 250.9 85.401V87.921C250.9 91.2344 251.32 93.7777 252.16 95.551C253.046 97.3244 254.493 98.211 256.5 98.211Z" fill="white"/>
<path d="M289.958 105.841C285.245 105.841 281.651 104.301 279.178 101.221C276.751 98.0944 275.538 93.2177 275.538 86.591C275.538 79.9644 276.751 75.111 279.178 72.031C281.651 68.9044 285.151 67.341 289.678 67.341C294.111 67.341 297.425 68.9044 299.618 72.031C301.858 75.111 302.978 79.9644 302.978 86.591V88.691H284.288C284.335 91.9577 284.778 94.501 285.618 96.321C286.458 98.0944 287.905 98.981 289.958 98.981C291.405 98.981 292.548 98.3744 293.388 97.161C294.228 95.901 294.648 94.1744 294.648 91.981H302.978C302.978 96.6944 301.741 100.194 299.268 102.481C296.795 104.721 293.691 105.841 289.958 105.841ZM284.358 82.601H294.158C294.158 79.941 293.785 77.8877 293.038 76.441C292.338 74.9477 291.218 74.201 289.678 74.201C287.905 74.201 286.598 74.9477 285.758 76.441C284.965 77.8877 284.498 79.941 284.358 82.601Z" fill="white"/>
<path d="M308.792 105.001V68.181H315.792L316.772 73.571H317.192C317.705 72.031 318.428 70.6077 319.362 69.301C320.295 67.9944 321.695 67.341 323.562 67.341C324.635 67.341 325.475 67.4344 326.082 67.621C326.735 67.8077 327.062 67.901 327.062 67.901V76.021H324.052C322.838 76.021 321.695 76.2777 320.622 76.791C319.595 77.3044 318.755 78.1677 318.102 79.381C317.495 80.5944 317.192 82.2977 317.192 84.491V105.001H308.792Z" fill="white"/>
<path d="M342.625 105.841C339.825 105.841 337.422 105.351 335.415 104.371C333.409 103.391 331.869 102.038 330.795 100.311C329.769 98.5377 329.255 96.4844 329.255 94.151C329.255 93.9644 329.255 93.7777 329.255 93.591C329.302 93.4044 329.325 93.311 329.325 93.311H337.865V93.801C337.912 95.761 338.472 97.1144 339.545 97.861C340.619 98.6077 341.739 98.981 342.905 98.981C344.025 98.981 345.122 98.701 346.195 98.141C347.269 97.5344 347.805 96.4844 347.805 94.991C347.805 93.6844 347.362 92.7044 346.475 92.051C345.635 91.351 344.515 90.8144 343.115 90.441C341.762 90.021 340.315 89.601 338.775 89.181C337.282 88.761 335.835 88.1777 334.435 87.431C333.082 86.6377 331.962 85.5644 331.075 84.211C330.235 82.811 329.815 80.921 329.815 78.541C329.815 76.021 330.399 73.9444 331.565 72.311C332.732 70.631 334.319 69.3944 336.325 68.601C338.332 67.761 340.549 67.341 342.975 67.341C345.309 67.341 347.409 67.7377 349.275 68.531C351.189 69.3244 352.682 70.4677 353.755 71.961C354.875 73.4544 355.435 75.251 355.435 77.351C355.435 77.7244 355.412 78.0744 355.365 78.401C355.365 78.7277 355.365 78.9144 355.365 78.961H346.825V78.821C346.779 77.1877 346.382 76.021 345.635 75.321C344.935 74.5744 343.955 74.201 342.695 74.201C341.855 74.201 341.109 74.3644 340.455 74.691C339.802 74.971 339.289 75.391 338.915 75.951C338.542 76.4644 338.355 77.0944 338.355 77.841C338.355 79.0077 338.775 79.8944 339.615 80.501C340.502 81.1077 341.622 81.5977 342.975 81.971C344.375 82.3444 345.822 82.741 347.315 83.161C348.855 83.5344 350.302 84.1177 351.655 84.911C353.055 85.6577 354.175 86.7544 355.015 88.201C355.902 89.601 356.345 91.5144 356.345 93.941C356.345 96.9277 355.739 99.2844 354.525 101.011C353.359 102.738 351.725 103.974 349.625 104.721C347.572 105.468 345.239 105.841 342.625 105.841Z" fill="white"/>
<path d="M376.089 105.841C371.189 105.841 367.502 104.301 365.029 101.221C362.602 98.0944 361.389 93.2177 361.389 86.591C361.389 79.9644 362.602 75.111 365.029 72.031C367.502 68.9044 371.189 67.341 376.089 67.341C380.989 67.341 384.652 68.9044 387.079 72.031C389.552 75.111 390.789 79.9644 390.789 86.591C390.789 93.2177 389.552 98.0944 387.079 101.221C384.652 104.301 380.989 105.841 376.089 105.841ZM376.089 98.771C378.282 98.771 379.822 97.861 380.709 96.041C381.596 94.1744 382.039 91.4677 382.039 87.921V85.261C382.039 81.7144 381.596 79.031 380.709 77.211C379.822 75.3444 378.282 74.411 376.089 74.411C373.942 74.411 372.402 75.3444 371.469 77.211C370.582 79.031 370.139 81.7144 370.139 85.261V87.921C370.139 91.4677 370.582 94.1744 371.469 96.041C372.402 97.861 373.942 98.771 376.089 98.771Z" fill="white"/>
<path d="M410.038 105.841C405.231 105.841 401.707 104.301 399.467 101.221C397.227 98.0944 396.108 93.2177 396.108 86.591C396.108 79.9644 397.251 75.111 399.538 72.031C401.824 68.9044 405.231 67.341 409.758 67.341C413.678 67.341 416.804 68.5077 419.138 70.841C421.471 73.1744 422.638 76.9077 422.638 82.041H414.027C414.027 79.4277 413.678 77.5144 412.978 76.301C412.278 75.041 411.204 74.411 409.758 74.411C407.984 74.411 406.724 75.3444 405.978 77.211C405.231 79.031 404.858 81.7144 404.858 85.261V87.921C404.858 91.4677 405.254 94.1744 406.048 96.041C406.841 97.861 408.171 98.771 410.038 98.771C411.531 98.771 412.604 98.141 413.258 96.881C413.958 95.5744 414.307 93.661 414.307 91.141H422.638C422.638 94.5477 422.124 97.3477 421.098 99.541C420.071 101.688 418.601 103.274 416.688 104.301C414.821 105.328 412.604 105.841 410.038 105.841Z" fill="white"/>
<path d="M22.1474 119.035V50.435H41.8667C44.2732 50.435 46.4122 51.1684 48.2839 52.635C50.2001 54.035 51.693 56.0017 52.7625 58.535C53.832 61.0684 54.3668 64.035 54.3668 67.435C54.3668 71.3684 53.676 74.7017 52.2946 77.4351C50.9577 80.1017 49.3088 81.9684 47.348 83.035V83.4351C49.6208 84.5017 51.537 86.535 53.0967 89.535C54.6564 92.5351 55.4363 96.235 55.4363 100.635C55.4363 104.502 54.8124 107.802 53.5646 110.535C52.3169 113.268 50.668 115.368 48.6181 116.835C46.5682 118.302 44.3177 119.035 41.8667 119.035H22.1474ZM30.7036 107.635H40.463C42.2455 107.635 43.7161 106.902 44.8748 105.435C46.078 103.968 46.6796 101.835 46.6796 99.035C46.6796 96.3684 46.1225 94.135 45.0084 92.335C43.9389 90.4684 42.2901 89.535 40.0619 89.535H30.7036V107.635ZM30.7036 78.235H39.5271C41.5771 78.235 43.0922 77.4017 44.0726 75.735C45.0976 74.0017 45.6101 72.0017 45.6101 69.735C45.6101 67.135 45.0753 65.1684 44.0058 63.835C42.9808 62.5017 41.6216 61.835 39.9282 61.835H30.7036V78.235Z" fill="white"/>
<path d="M77.8827 120.235C72.134 120.235 67.6554 117.335 64.4468 111.535C61.2382 105.735 59.634 96.8017 59.634 84.735C59.634 72.6017 61.2382 63.6684 64.4468 57.935C67.6554 52.135 72.134 49.235 77.8827 49.235C81.0913 49.235 83.9656 50.1684 86.5057 52.035C89.0458 53.9017 91.0512 56.8017 92.5218 60.735C93.9924 64.6684 94.7277 69.735 94.7277 75.935H85.971C85.971 70.6017 85.2134 66.6684 83.6982 64.135C82.2276 61.535 80.2891 60.235 77.8827 60.235C74.7187 60.235 72.3568 62.2017 70.7971 66.135C69.2374 70.0017 68.4575 75.3684 68.4575 82.235V87.235C68.4575 94.1017 69.2597 99.5017 70.864 103.435C72.4682 107.302 74.8969 109.235 78.1501 109.235C80.6456 109.235 82.6287 107.968 84.0993 105.435C85.6145 102.835 86.372 98.9017 86.372 93.635H94.7277C94.7277 99.635 93.9924 104.602 92.5218 108.535C91.0512 112.468 89.0458 115.402 86.5057 117.335C84.0102 119.268 81.1358 120.235 77.8827 120.235Z" fill="white"/>
<path d="M116.372 120.235C111.47 120.235 107.615 118.335 104.808 114.535C102.045 110.668 100.663 105.002 100.663 97.535V50.435H109.22V97.135C109.22 101.068 109.843 104.068 111.091 106.135C112.339 108.202 114.099 109.235 116.372 109.235C118.645 109.235 120.405 108.202 121.653 106.135C122.945 104.068 123.591 101.068 123.591 97.135V50.435H132.147V97.535C132.147 105.002 130.744 110.668 127.936 114.535C125.129 118.335 121.274 120.235 116.372 120.235Z" fill="white"/>
</svg>
