<svg width="224" height="50" viewBox="0 0 224 50" fill="none" xmlns="http://www.w3.org/2000/svg">
<path d="M211.895 0.65625H223.473V31.6172C223.473 35.1953 222.622 38.3125 220.919 40.9688C219.215 43.6094 216.84 45.6562 213.794 47.1094C210.747 48.5469 207.208 49.2656 203.176 49.2656C199.098 49.2656 195.536 48.5469 192.489 47.1094C189.442 45.6562 187.075 43.6094 185.387 40.9688C183.7 38.3125 182.856 35.1953 182.856 31.6172V0.65625H194.458V30.6094C194.458 32.2656 194.817 33.7422 195.536 35.0391C196.27 36.3359 197.294 37.3516 198.606 38.0859C199.919 38.8203 201.442 39.1875 203.176 39.1875C204.911 39.1875 206.426 38.8203 207.723 38.0859C209.036 37.3516 210.059 36.3359 210.794 35.0391C211.528 33.7422 211.895 32.2656 211.895 30.6094V0.65625Z" fill="white"/>
<path d="M165.891 15.0469C165.735 13.3281 165.04 11.9922 163.805 11.0391C162.586 10.0703 160.844 9.58594 158.579 9.58594C157.079 9.58594 155.829 9.78125 154.829 10.1719C153.829 10.5625 153.079 11.1016 152.579 11.7891C152.079 12.4609 151.821 13.2344 151.805 14.1094C151.774 14.8281 151.915 15.4609 152.227 16.0078C152.555 16.5547 153.024 17.0391 153.633 17.4609C154.258 17.8672 155.008 18.2266 155.883 18.5391C156.758 18.8516 157.743 19.125 158.836 19.3594L162.961 20.2969C165.336 20.8125 167.43 21.5 169.243 22.3594C171.071 23.2188 172.602 24.2422 173.836 25.4297C175.086 26.6172 176.032 27.9844 176.672 29.5313C177.313 31.0781 177.641 32.8125 177.657 34.7344C177.641 37.7656 176.875 40.3672 175.36 42.5391C173.844 44.7109 171.665 46.375 168.821 47.5312C165.993 48.6875 162.579 49.2656 158.579 49.2656C154.563 49.2656 151.063 48.6641 148.079 47.4609C145.094 46.2578 142.774 44.4297 141.118 41.9766C139.461 39.5234 138.61 36.4219 138.563 32.6719H149.672C149.766 34.2188 150.18 35.5078 150.915 36.5391C151.649 37.5703 152.657 38.3516 153.938 38.8828C155.235 39.4141 156.735 39.6797 158.438 39.6797C160 39.6797 161.329 39.4687 162.422 39.0469C163.532 38.625 164.383 38.0391 164.977 37.2891C165.571 36.5391 165.875 35.6797 165.891 34.7109C165.875 33.8047 165.594 33.0312 165.047 32.3906C164.5 31.7344 163.657 31.1719 162.516 30.7031C161.391 30.2188 159.954 29.7734 158.204 29.3672L153.188 28.1953C149.032 27.2422 145.758 25.7031 143.368 23.5781C140.977 21.4375 139.79 18.5469 139.805 14.9063C139.79 11.9375 140.586 9.33594 142.196 7.10156C143.805 4.86719 146.032 3.125 148.875 1.875C151.719 0.625 154.961 0 158.602 0C162.321 0 165.547 0.632811 168.282 1.89844C171.032 3.14844 173.165 4.90625 174.68 7.17188C176.196 9.4375 176.969 12.0625 177 15.0469H165.891Z" fill="white"/>
<path d="M121.756 0.65625H133.334V31.6172C133.334 35.1953 132.483 38.3125 130.78 40.9688C129.077 43.6094 126.702 45.6562 123.655 47.1094C120.608 48.5469 117.069 49.2656 113.037 49.2656C108.959 49.2656 105.397 48.5469 102.35 47.1094C99.3031 45.6562 96.9359 43.6094 95.2484 40.9688C93.5609 38.3125 92.7172 35.1953 92.7172 31.6172V0.65625H104.319V30.6094C104.319 32.2656 104.678 33.7422 105.397 35.0391C106.131 36.3359 107.155 37.3516 108.467 38.0859C109.78 38.8203 111.303 39.1875 113.037 39.1875C114.772 39.1875 116.287 38.8203 117.584 38.0859C118.897 37.3516 119.92 36.3359 120.655 35.0391C121.389 33.7422 121.756 32.2656 121.756 30.6094V0.65625Z" fill="white"/>
<path d="M86.7384 18.0469H75.0197C74.8634 16.8438 74.5431 15.7578 74.0587 14.7891C73.5743 13.8203 72.9337 12.9922 72.1368 12.3047C71.34 11.6172 70.3947 11.0938 69.3009 10.7344C68.2228 10.3594 67.0275 10.1719 65.715 10.1719C63.3868 10.1719 61.379 10.7422 59.6915 11.8828C58.0197 13.0234 56.7306 14.6719 55.8243 16.8281C54.9337 18.9844 54.4884 21.5938 54.4884 24.6563C54.4884 27.8438 54.9415 30.5156 55.8478 32.6719C56.7697 34.8125 58.0587 36.4297 59.715 37.5234C61.3868 38.6016 63.3634 39.1406 65.6447 39.1406C66.9259 39.1406 68.09 38.9766 69.1368 38.6484C70.1993 38.3203 71.129 37.8438 71.9259 37.2188C72.7384 36.5781 73.4025 35.8047 73.9181 34.8984C74.4493 33.9766 74.8165 32.9375 75.0197 31.7813L86.7384 31.8516C86.5353 33.9766 85.9181 36.0703 84.8868 38.1328C83.8712 40.1953 82.4728 42.0781 80.6915 43.7812C78.9103 45.4688 76.7384 46.8125 74.1759 47.8125C71.629 48.8125 68.7072 49.3125 65.4103 49.3125C61.0665 49.3125 57.1759 48.3594 53.7384 46.4531C50.3165 44.5312 47.6134 41.7344 45.629 38.0625C43.6447 34.3906 42.6525 29.9219 42.6525 24.6563C42.6525 19.375 43.6603 14.8984 45.6759 11.2266C47.6915 7.55469 50.4181 4.76563 53.8556 2.85938C57.2931 0.953125 61.1447 0 65.4103 0C68.3165 0 71.004 0.406251 73.4728 1.21875C75.9415 2.01562 78.1134 3.1875 79.9884 4.73437C81.8634 6.26563 83.3868 8.14844 84.5587 10.3828C85.7306 12.6172 86.4572 15.1719 86.7384 18.0469Z" fill="white"/>
<path d="M0 48.6562V0.65625H20.0156C23.6094 0.65625 26.6172 1.16406 29.0391 2.17969C31.4766 3.19531 33.3047 4.61719 34.5234 6.44531C35.7578 8.27344 36.375 10.3906 36.375 12.7969C36.375 14.625 35.9922 16.2578 35.2266 17.6953C34.4609 19.1172 33.4063 20.2969 32.0625 21.2344C30.7188 22.1719 29.1641 22.8281 27.3984 23.2031V23.6719C29.3359 23.7656 31.125 24.2891 32.7656 25.2422C34.4219 26.1953 35.75 27.5234 36.75 29.2266C37.75 30.9141 38.25 32.9141 38.25 35.2266C38.25 37.8047 37.5938 40.1094 36.2813 42.1406C34.9688 44.1562 33.0703 45.75 30.5859 46.9219C28.1016 48.0781 25.0859 48.6562 21.5391 48.6562H0ZM11.6016 39.3047H18.7734C21.2891 39.3047 23.1406 38.8281 24.3281 37.875C25.5313 36.9219 26.1328 35.5938 26.1328 33.8906C26.1328 32.6563 25.8438 31.5938 25.2656 30.7031C24.6875 29.7969 23.8672 29.1016 22.8047 28.6172C21.7422 28.1172 20.4688 27.8672 18.9844 27.8672H11.6016V39.3047ZM11.6016 20.3906H18.0234C19.2891 20.3906 20.4141 20.1797 21.3984 19.7578C22.3828 19.3359 23.1484 18.7266 23.6953 17.9297C24.2578 17.1328 24.5391 16.1719 24.5391 15.0469C24.5391 13.4375 23.9688 12.1719 22.8281 11.25C21.6875 10.3281 20.1484 9.86719 18.2109 9.86719H11.6016V20.3906Z" fill="white"/>
</svg>
